<?xml version="1.0" encoding="iso-8859-1"?>
<!-- Generator: Adobe Illustrator 19.0.0, SVG Export Plug-In . SVG Version: 6.00 Build 0)  -->
<svg version="1.1" id="Layer_1" xmlns="http://www.w3.org/2000/svg" xmlns:xlink="http://www.w3.org/1999/xlink" x="0px" y="0px"
	 viewBox="0 0 511.97 511.97" style="enable-background:new 0 0 511.97 511.97;" xml:space="preserve">
<path style="fill:#F5BA45;" d="M437.311,23.808c-4.156-4.172-10.922-4.172-15.078,0l0,0l-47.03,47.014l15.094,15.093l47.015-47.03
	l0,0C441.482,34.729,441.482,27.98,437.311,23.808z"/>
<polygon style="fill:#424953;" points="346.798,99.227 3.123,442.918 48.38,488.167 392.062,144.476 "/>
<polygon style="fill:#646C77;" points="346.798,129.398 33.294,442.918 48.38,457.995 361.891,144.476 "/>
<path style="fill:#F5BA45;" d="M437.311,39.651c-19.108,0-38.218,7.281-52.796,21.875l-52.795,52.795l45.248,45.248
	c0,0,52.702-52.686,52.733-52.717c2.094-2.094,4.875-3.156,7.656-3.156c2.718,0,5.437,1.016,7.499,3.078
	c4.155,4.156,4.155,10.922,0,15.078c-12.421,12.516-12.468,32.796,0,45.264c6.249,6.25,14.437,9.359,22.624,9.359
	c8.156,0,16.312-3.094,22.546-9.281l0,0c0.031-0.031,0.047-0.062,0.078-0.078c29.155-29.171,29.155-76.435,0-105.59
	C475.528,46.932,456.419,39.651,437.311,39.651L437.311,39.651z"/>
<path style="fill:#FECD57;" d="M475.028,76.603c-10.078-10.078-23.469-15.625-37.717-15.625c-14.25,0-27.64,5.547-37.702,15.625
	l-52.811,52.795l15.093,15.093c15.171-15.171,51.562-51.561,52.671-52.67v-0.016l0.047-0.031c6.062-6.078,14.14-9.405,22.749-9.405
	c8.545,0,16.561,3.312,22.576,9.312c6.047,6.047,9.375,14.078,9.375,22.64c0,8.531-3.312,16.546-9.344,22.593
	c-4.141,4.203-4.172,10.969-0.031,15.109c2.719,2.719,5.891,3.125,7.547,3.125c2.828,0,5.5-1.094,7.516-3.094l0.281-0.281
	c9.906-10.046,15.374-23.343,15.374-37.452C490.652,100.071,485.09,86.681,475.028,76.603z"/>
<path style="fill:#CBD0D8;" d="M55.918,491.291c-2.727,0-5.46-1.047-7.539-3.124L3.123,442.918c-4.164-4.172-4.164-10.921,0-15.093
	c4.164-4.156,10.922-4.156,15.085,0l45.256,45.264c4.164,4.156,4.164,10.906,0,15.078C61.379,490.244,58.653,491.291,55.918,491.291
	z"/>
<g>
</g>
<g>
</g>
<g>
</g>
<g>
</g>
<g>
</g>
<g>
</g>
<g>
</g>
<g>
</g>
<g>
</g>
<g>
</g>
<g>
</g>
<g>
</g>
<g>
</g>
<g>
</g>
<g>
</g>
</svg>
